PathFileType	4	(x/y/z)	S01_M20_T14.trc
DataRate	CameraRate	NumFrames	NumMarkers	Units	OrigDataRate	OrigDataStartFrame	OrigNumFrames
240	240	8	51	mm	240	182	485
Frame#	Time	Sternum			R.Acromium			L.Acromium			Top.Head			R.ASIS			L.ASIS			R.PSIS			L.PSIS			R.Great.Tro			L.Great.Tro			R.Iliac.Crest			L.Iliac.Crest			V.Sacral			R.Thigh.Upper.Post			R.Thigh.Lower.Ant			R.Thigh.Lower.Post			R.Thigh.Upper.Ant			R.Knee.Lat			R.Knee.Med			R.Shank.Upper.Post			R.Shank.Lower.Ant			R.Shank.Lower.Post			R.Shank.Upper.Ant			R.Ankle.Lat			R.Ankle.Med			R.Heel.Upper			R.Heel.Med			R.Heel.Lat			R.Toe.Lat			R.Toe.Med			R.Toe.Tip			L.Thigh.Upper.Post			L.Thigh.Lower.Ant			L.Thigh.Lower.Post			L.Thigh.Upper.Ant			L.Knee.Lat			L.Knee.Med			L.Shank.Upper.Post			L.Shank.Lower.Ant			L.Shank.Lower.Post			L.Shank.Upper.Ant			L.Ankle.Lat			L.Ankle.Med			L.Heel.Upper			L.Heel.Med			L.Heel.Lat			L.Toe.Lat			L.Toe.Med			L.Toe.Tip			Cervical.Spine			Back			
		X1	Y1	Z1	X2	Y2	Z2	X3	Y3	Z3	X4	Y4	Z4	X5	Y5	Z5	X6	Y6	Z6	X7	Y7	Z7	X8	Y8	Z8	X9	Y9	Z9	X10	Y10	Z10	X11	Y11	Z11	X12	Y12	Z12	X13	Y13	Z13	X14	Y14	Z14	X15	Y15	Z15	X16	Y16	Z16	X17	Y17	Z17	X18	Y18	Z18	X19	Y19	Z19	X20	Y20	Z20	X21	Y21	Z21	X22	Y22	Z22	X23	Y23	Z23	X24	Y24	Z24	X25	Y25	Z25	X26	Y26	Z26	X27	Y27	Z27	X28	Y28	Z28	X29	Y29	Z29	X30	Y30	Z30	X31	Y31	Z31	X32	Y32	Z32	X33	Y33	Z33	X34	Y34	Z34	X35	Y35	Z35	X36	Y36	Z36	X37	Y37	Z37	X38	Y38	Z38	X39	Y39	Z39	X40	Y40	Z40	X41	Y41	Z41	X42	Y42	Z42	X43	Y43	Z43	X44	Y44	Z44	X45	Y45	Z45	X46	Y46	Z46	X47	Y47	Z47	X48	Y48	Z48	X49	Y49	Z49	X50	Y50	Z50	X51	Y51	Z51	

182	0.75417	-375.97	1280.1	289.47	-467.39	1519.8	491.92	-508.72	1564.1	169.88	-377.81	1836.8	337.01	-415.97	1026.2	429.22	-436.07	1031.6	163.43	-661.86	1076.7	358.12	-671.06	1074	255.72	-487.75	977.42	515.99	-548.54	981.57	93.513	-494.68	1121.3	508.28	-551.68	1121.4	104.45	-681.3	1039.8	306.05	-451.34	670.86	480.81	-372.8	614.13	443.52	-435.63	586.16	455.12	-385.83	700.9	469.62	-403.11	529.22	445.43	-414.58	535.17	303.72	-462.9	371.35	469.16	-411.02	286.87	419.71	-471.39	301.52	458.16	-405.13	358.08	438.22	-489.5	102.78	417.45	-461.45	108.31	323.16	-563.39	73.636	360.63	-547.13	44.554	331.49	-551.08	43.472	396.27	-359.6	36.931	451.59	-329.49	39.79	326.04	-265.44	58.423	379.69	-518.75	694.32	103.75	-426.2	639.11	80.056	-490.76	608.18	114.48	-461.78	727.64	73.817	-441.22	540.12	86.411	-384.75	529.08	228.99	-564.25	486.81	86.871	-584.24	378.27	102.05	-620.26	432.09	94.252	-529.55	431.83	90.658	-779.41	296.12	135.86	-739.81	272.7	225.34	-839.03	326.41	198.09	-846.41	300.4	231.27	-860.51	306.83	171.08	-753.67	141.42	98.064	-709.99	115.29	210.55	-671.78	78.694	147.41	-561.8	1603.3	347.16	-671.23	1293.9	343.75
183	0.75833	-371.2	1281.2	289.58	-462.3	1520.8	492.18	-504.45	1565	170.19	-373.11	1837.7	336.79	-411.06	1026.9	429.56	-431.21	1032.7	163.88	-656.9	1077.4	358.31	-666	1074.9	255.89	-483.11	977.83	516.18	-543.32	982.85	93.683	-489.7	1122.2	508.52	-546.7	1122.6	104.8	-676.27	1040.6	306.16	-448.62	670.99	481.06	-370.44	613.69	443.88	-433.51	586.2	455.38	-382.87	700.58	469.92	-401.37	529.03	445.71	-412.51	535.05	303.97	-461.84	371.39	469.32	-410.23	286.74	419.88	-470.6	301.59	458.28	-404.1	357.92	438.43	-489.37	102.86	417.45	-461.31	108.4	323.19	-563.31	73.764	360.63	-547.09	44.676	331.49	-551.03	43.589	396.26	-359.57	36.877	451.65	-329.44	39.794	326.06	-265.37	58.266	379.75	-510.73	695.61	103.38	-417.54	641.29	80.247	-481.93	609.73	114.22	-453.94	729.5	73.794	-431.67	542.01	86.756	-375.41	531.7	229.4	-554.21	487.41	87.106	-573.02	378.71	102.38	-609.55	432.1	94.408	-518.92	432.83	90.981	-767.41	294.36	136.07	-727.55	271.7	225.67	-827.68	323.67	198.1	-834.7	297.52	231.18	-848.79	303.76	171.07	-738.95	140.2	98.419	-695.08	114.88	211.01	-656.09	78.965	147.97	-557.01	1604.1	347.59	-666.25	1294.7	344.47
184	0.7625	-366.43	1282.2	289.69	-457.22	1521.8	492.42	-500.18	1565.8	170.49	-368.43	1838.6	336.56	-406.18	1027.6	429.93	-426.33	1033.9	164.36	-651.95	1078.2	358.48	-660.93	1075.8	256.03	-478.49	978.22	516.36	-538.06	984.13	93.832	-484.78	1123	508.79	-541.69	1123.8	105.14	-671.25	1041.5	306.24	-445.92	671.13	481.31	-368.11	613.26	444.23	-431.41	586.24	455.64	-379.94	700.26	470.2	-399.66	528.84	445.98	-410.47	534.92	304.2	-460.8	371.43	469.47	-409.45	286.61	420.06	-469.82	301.67	458.39	-403.09	357.77	438.64	-489.25	102.94	417.45	-461.17	108.48	323.22	-563.23	73.895	360.63	-547.05	44.797	331.49	-550.98	43.712	396.25	-359.54	36.822	451.71	-329.39	39.797	326.07	-265.3	58.109	379.81	-502.75	696.92	102.98	-408.93	643.49	80.447	-473.18	611.3	113.94	-446.14	731.36	73.77	-422.18	543.9	87.106	-366.18	534.33	229.81	-544.22	487.91	87.311	-561.77	379.05	102.72	-598.84	431.98	94.54	-508.31	433.76	91.303	-755.32	292.4	136.27	-715.2	270.55	226	-816.24	320.7	198.1	-822.88	294.43	231.11	-836.96	300.45	171.05	-724.06	138.84	98.789	-679.98	114.38	211.49	-640.21	79.168	148.54	-552.21	1604.9	348.01	-661.28	1295.4	345.17
185	0.76667	-361.67	1283.1	289.79	-452.15	1522.8	492.64	-495.91	1566.6	170.76	-363.77	1839.5	336.31	-401.34	1028.3	430.33	-421.42	1035	164.86	-647.01	1078.9	358.6	-655.87	1076.7	256.13	-473.91	978.58	516.54	-532.75	985.41	93.96	-479.91	1123.8	509.09	-536.66	1124.9	105.47	-666.23	1042.3	306.29	-443.25	671.26	481.53	-365.81	612.81	444.57	-429.34	586.27	455.9	-377.04	699.93	470.48	-397.98	528.66	446.25	-408.47	534.79	304.43	-459.78	371.47	469.61	-408.7	286.49	420.23	-469.05	301.75	458.48	-402.1	357.62	438.83	-489.12	103.03	417.45	-461.03	108.56	323.23	-563.14	74.029	360.62	-547.01	44.918	331.48	-550.93	43.841	396.23	-359.51	36.768	451.76	-329.33	39.798	326.09	-265.22	57.952	379.86	-494.82	698.23	102.55	-400.37	645.69	80.657	-464.49	612.88	113.64	-438.36	733.22	73.746	-412.77	545.79	87.458	-357.07	536.94	230.23	-534.26	488.31	87.486	-550.49	379.29	103.05	-588.12	431.73	94.651	-497.72	434.62	91.623	-743.14	290.26	136.47	-702.75	269.23	226.33	-804.69	317.51	198.1	-810.95	291.12	231.04	-825.01	296.92	171.02	-709	137.35	99.168	-664.72	113.79	211.98	-624.16	79.31	149.13	-547.42	1605.6	348.4	-656.31	1296.1	345.85
186	0.77083	-356.9	1284.1	289.89	-447.09	1523.8	492.84	-491.64	1567.4	171.02	-359.13	1840.3	336.05	-396.52	1029	430.75	-416.49	1036.1	165.38	-642.09	1079.7	358.7	-650.81	1077.5	256.2	-469.35	978.92	516.71	-527.39	986.69	94.068	-475.08	1124.6	509.41	-531.61	1126	105.78	-661.23	1043	306.3	-440.61	671.38	481.75	-363.54	612.37	444.9	-427.3	586.3	456.16	-374.17	699.6	470.74	-396.33	528.47	446.5	-406.5	534.66	304.64	-458.77	371.51	469.75	-407.95	286.37	420.39	-468.3	301.83	458.57	-401.12	357.47	439.02	-488.99	103.11	417.45	-460.89	108.63	323.24	-563.05	74.167	360.6	-546.97	45.039	331.47	-550.89	43.976	396.21	-359.48	36.715	451.82	-329.28	39.798	326.1	-265.15	57.795	379.92	-486.93	699.55	102.1	-391.86	647.89	80.874	-455.86	614.46	113.34	-430.62	735.07	73.724	-403.42	547.67	87.811	-348.08	539.53	230.65	-524.36	488.6	87.633	-539.19	379.45	103.38	-577.41	431.37	94.743	-487.15	435.42	91.939	-730.86	287.93	136.67	-690.19	267.77	226.67	-793.05	314.09	198.1	-798.9	287.6	230.98	-812.96	293.15	171	-693.77	135.76	99.551	-649.29	113.12	212.47	-607.94	79.401	149.72	-542.63	1606.4	348.78	-651.35	1296.8	346.5
187	0.775	-352.13	1285.1	289.98	-442.03	1524.7	493.03	-487.35	1568.1	171.26	-354.5	1841.1	335.78	-391.72	1029.6	431.2	-411.54	1037.2	165.93	-637.18	1080.3	358.77	-645.76	1078.3	256.24	-464.81	979.23	516.88	-522	987.96	94.158	-470.31	1125.3	509.76	-526.56	1127.1	106.09	-656.23	1043.8	306.28	-437.99	671.51	481.95	-361.29	611.93	445.21	-425.27	586.33	456.41	-371.32	699.25	470.99	-394.71	528.28	446.75	-404.57	534.52	304.85	-457.78	371.55	469.88	-407.22	286.25	420.54	-467.57	301.91	458.65	-400.16	357.32	439.2	-488.86	103.2	417.44	-460.75	108.7	323.25	-562.96	74.309	360.58	-546.93	45.159	331.45	-550.83	44.117	396.18	-359.45	36.663	451.86	-329.23	39.794	326.12	-265.08	57.638	379.97	-479.09	700.88	101.64	-383.4	650.08	81.098	-447.3	616.05	113.03	-422.91	736.93	73.704	-394.15	549.53	88.163	-339.22	542.1	231.08	-514.5	488.8	87.755	-527.88	379.51	103.71	-566.71	430.88	94.817	-476.6	436.15	92.248	-718.48	285.43	136.86	-677.54	266.15	227	-781.3	310.46	198.1	-786.72	283.87	230.93	-800.78	289.18	170.97	-678.38	134.06	99.935	-633.7	112.37	212.95	-591.57	79.45	150.3	-537.84	1607.1	349.15	-646.39	1297.5	347.15
188	0.77917	-347.35	1286	290.06	-436.98	1525.6	493.19	-483.06	1568.8	171.48	-349.9	1841.9	335.5	-386.95	1030.2	431.66	-406.58	1038.3	166.48	-632.28	1081	358.81	-640.71	1079.1	256.24	-460.3	979.5	517.04	-516.58	989.21	94.232	-465.57	1125.9	510.13	-521.49	1128.1	106.39	-651.24	1044.5	306.24	-435.39	671.63	482.14	-359.07	611.48	445.52	-423.25	586.35	456.65	-368.5	698.91	471.23	-393.1	528.09	446.99	-402.66	534.38	305.04	-456.8	371.59	470.01	-406.49	286.13	420.69	-466.84	301.99	458.72	-399.21	357.18	439.38	-488.73	103.3	417.43	-460.61	108.77	323.25	-562.86	74.455	360.55	-546.88	45.279	331.43	-550.78	44.264	396.15	-359.42	36.612	451.91	-329.17	39.787	326.13	-265.01	57.48	380.03	-471.3	702.21	101.17	-375	652.26	81.33	-438.81	617.63	112.72	-415.23	738.77	73.687	-384.95	551.39	88.512	-330.49	544.64	231.5	-504.68	488.91	87.853	-516.55	379.5	104.03	-556.01	430.28	94.876	-466.08	436.81	92.551	-706	282.75	137.04	-664.78	264.39	227.32	-769.43	306.63	198.09	-774.42	279.96	230.89	-788.47	284.99	170.94	-662.84	132.27	100.32	-617.96	111.56	213.43	-575.05	79.464	150.87	-533.05	1607.8	349.49	-641.43	1298.2	347.77
189	0.78333	-342.58	1286.8	290.14	-431.94	1526.4	493.35	-478.76	1569.5	171.69	-345.31	1842.7	335.22	-382.2	1030.8	432.15	-401.59	1039.3	167.05	-627.4	1081.6	358.83	-635.66	1079.8	256.21	-455.82	979.75	517.2	-511.13	990.43	94.292	-460.88	1126.5	510.51	-516.43	1129	106.67	-646.26	1045.1	306.17	-432.82	671.74	482.31	-356.87	611.03	445.81	-421.26	586.38	456.89	-365.7	698.55	471.45	-391.52	527.9	447.22	-400.79	534.23	305.23	-455.83	371.63	470.12	-405.78	286.02	420.83	-466.12	302.07	458.78	-398.27	357.04	439.54	-488.6	103.39	417.41	-460.48	108.83	323.24	-562.77	74.605	360.51	-546.84	45.399	331.4	-550.73	44.416	396.12	-359.39	36.563	451.95	-329.12	39.777	326.15	-264.93	57.323	380.08	-463.54	703.53	100.71	-366.65	654.43	81.568	-430.38	619.21	112.42	-407.6	740.59	73.675	-375.84	553.23	88.858	-321.89	547.13	231.92	-494.92	488.91	87.929	-505.21	379.41	104.34	-545.33	429.57	94.921	-455.58	437.42	92.845	-693.42	279.92	137.22	-651.91	262.49	227.63	-757.45	302.59	198.09	-761.98	275.86	230.85	-776.04	280.62	170.91	-647.16	130.39	100.69	-602.07	110.7	213.9	-558.39	79.452	151.43	-528.26	1608.4	349.81	-636.48	1298.8	348.37
